name Walk6.mot
datacolumns 19
datarows 25
range 1.28000000 1.40000000
endheader

                time	   L_ground_force_vx	   L_ground_force_vy	   L_ground_force_vz	   L_ground_force_px	   L_ground_force_py	   L_ground_force_pz	   R_ground_force_vx	   R_ground_force_vy	   R_ground_force_vz	   R_ground_force_px	   R_ground_force_py	   R_ground_force_pz	   L_ground_torque_x	   L_ground_torque_y	   L_ground_torque_z	   R_ground_torque_x	   R_ground_torque_y	   R_ground_torque_z	
          1.28000000	         -6.63007202	        147.68542989	        -23.28794410	         -0.10261860	          0.00000000	          0.02271792	         -0.00000000	          0.00000000	          0.00000000	          0.00000000	          0.00000000	          0.00000000	          0.00000000	          0.19591892	          0.00000000	          0.00000000	         -0.00000000	          0.00000000	
          1.28500000	        -13.66772268	        208.85263945	        -31.92071807	         -0.13582332	          0.00000000	          0.03020258	         -0.00000000	          0.00000000	          0.00000000	          0.00000000	          0.00000000	          0.00000000	          0.00000000	          0.30396079	          0.00000000	          0.00000000	         -0.00000000	          0.00000000	
          1.29000000	        -22.95647327	        278.47830788	        -41.44577039	         -0.17085400	          0.00000000	          0.03814973	         -0.00000000	          0.00000000	          0.00000000	          0.00000000	          0.00000000	          0.00000000	          0.00000000	          0.43495074	          0.00000000	          0.00000000	          0.00000000	          0.00000000	
          1.29500000	        -34.60884715	        352.75519375	        -51.18876457	         -0.20480035	          0.00000000	          0.04591764	         -0.00000000	          0.00000000	          0.00000000	          0.00000000	          0.00000000	          0.00000000	          0.00000000	          0.58539027	          0.00000000	          0.00000000	          0.00000000	          0.00000000	
          1.30000000	        -48.49791831	        425.97106767	        -60.11206356	         -0.23523478	          0.00000000	          0.05293996	         -0.00000000	          0.00000000	          0.00000000	          0.00000000	          0.00000000	          0.00000000	          0.00000000	          0.74762714	          0.00000000	          0.00000000	          0.00000000	          0.00000000	
          1.30500000	        -64.12869522	        492.72961340	        -66.97898688	         -0.26085139	          0.00000000	          0.05886663	         -0.00000000	          0.00000000	          0.00000000	          0.00000000	          0.00000000	          0.00000000	          0.00000000	          0.91284084	          0.00000000	          0.00000000	          0.00000000	          0.00000000	
          1.31000000	        -80.58970558	        550.16234059	        -70.78759776	         -0.28120307	          0.00000000	          0.06352690	         -0.00000000	          0.00000001	          0.00000000	          0.00000000	          0.00000000	          0.00000000	          0.00000000	          1.07186285	          0.00000000	          0.00000000	          0.00000000	          0.00000000	
          1.31500000	        -96.71379560	        597.40621180	        -71.07224325	         -0.29642756	          0.00000000	          0.06689182	         -0.00000000	          0.00000001	          0.00000000	          0.00000000	          0.00000000	          0.00000000	          0.00000000	          1.21360195	          0.00000000	          0.00000000	          0.00000000	          0.00000000	
          1.32000000	       -111.36373678	        634.74116824	        -67.91665257	         -0.30702100	          0.00000000	          0.06903451	         -0.00000000	          0.00000001	          0.00000000	          0.00000000	          0.00000000	          0.00000000	          0.00000000	          1.32634498	          0.00000000	          0.00000000	          0.00000000	          0.00000000	
          1.32500000	       -123.72846808	        663.38394250	        -61.80301940	         -0.31366097	          0.00000000	          0.07008925	         -0.00000000	          0.00000001	          0.00000000	          0.00000000	          0.00000000	          0.00000000	          0.00000000	          1.40047659	          0.00000000	          0.00000000	          0.00000000	          0.00000000	
          1.33000000	       -133.53083116	        685.32827303	        -53.39737430	         -0.31707978	          0.00000000	          0.07021811	         -0.00000000	          0.00000001	          0.00000000	          0.00000000	          0.00000000	          0.00000000	          0.00000000	          1.43073251	          0.00000000	          0.00000000	          0.00000000	          0.00000000	
          1.33500000	       -141.04714295	        703.05563877	        -43.39042686	         -0.31798212	          0.00000000	          0.06958794	         -0.00000000	          0.00000000	          0.00000000	         -0.00000000	          0.00000000	         -0.00000000	          0.00000000	          1.41674951	          0.00000000	          0.00000000	          0.00000000	          0.00000000	
          1.34000000	       -146.89722623	        719.15397440	        -32.44852598	         -0.31699969	          0.00000000	          0.06835993	         -0.00000000	          0.00000000	         -0.00000000	         -0.00000000	          0.00000000	         -0.00000000	          0.00000000	          1.36172786	          0.00000000	          0.00000000	          0.00000000	          0.00000000	
          1.34500000	       -151.72979218	        735.96278237	        -21.21767249	         -0.31467427	          0.00000000	          0.06668852	         -0.00000000	         -0.00000000	         -0.00000000	         -0.00000000	          0.00000000	         -0.00000000	          0.00000000	          1.27077290	          0.00000000	          0.00000000	          0.00000000	          0.00000000	
          1.35000000	       -156.00002832	        755.33058372	        -10.31336275	         -0.31145826	          0.00000000	          0.06472151	         -0.00000000	         -0.00000001	         -0.00000000	         -0.00000000	          0.00000000	         -0.00000000	          0.00000000	          1.14989080	          0.00000000	          0.00000000	          0.00000000	          0.00000000	
          1.35500000	       -159.91452633	        778.44533979	         -0.29332287	         -0.30772386	          0.00000000	          0.06259884	          0.00000000	         -0.00000002	         -0.00000000	         -0.00000000	          0.00000000	         -0.00000000	          0.00000000	          1.00639504	          0.00000000	          0.00000000	          0.00000000	          0.00000000	
          1.36000000	       -163.48305929	        805.70947460	          8.37162553	         -0.30377302	          0.00000000	          0.06045067	          0.00000000	         -0.00000003	         -0.00000000	         -0.00000000	          0.00000000	         -0.00000000	          0.00000000	          0.84997409	          0.00000000	          0.00000000	         -0.00000000	          0.00000000	
          1.36500000	       -166.59614491	        836.73502876	         15.32706825	         -0.29984225	          0.00000000	          0.05839066	          0.00000000	         -0.00000005	         -0.00000001	         -0.00000000	          0.00000000	         -0.00000000	          0.00000000	          0.69295788	          0.00000000	          0.00000000	         -0.00000000	          0.00000000	
          1.37000000	       -169.09566373	        870.52226293	         20.36878141	         -0.29610379	          0.00000000	          0.05650629	          0.00000001	         -0.00000007	         -0.00000001	         -0.00000000	          0.00000000	         -0.00000000	          0.00000000	          0.54882311	          0.00000000	          0.00000000	         -0.00000000	          0.00000000	
          1.37500000	       -170.83652703	        905.73539152	         23.46374251	         -0.29266656	          0.00000000	          0.05485218	          0.00000001	         -0.00000009	         -0.00000001	         -0.00000000	          0.00000000	         -0.00000000	          0.00000000	          0.42901420	          0.00000000	          0.00000000	         -0.00000000	          0.00000000	
          1.38000000	       -171.73678621	        940.95407439	         24.74056029	         -0.28958365	          0.00000000	          0.05345067	          0.00000001	         -0.00000012	         -0.00000001	         -0.00000000	          0.00000000	         -0.00000000	          0.00000000	          0.34021062	          0.00000000	          0.00000000	         -0.00000000	          0.00000000	
          1.38500000	       -171.79733284	        974.84839081	         24.45484916	         -0.28686441	          0.00000000	          0.05229763	          0.00000001	         -0.00000014	         -0.00000001	         -0.00000000	          0.00000000	         -0.00000000	          0.00000000	          0.28366081	          0.00000000	          0.00000000	         -0.00000000	          0.00000000	
          1.39000000	       -171.08133196	       1006.27499159	         22.94996727	         -0.28448623	          0.00000000	          0.05136858	          0.00000002	         -0.00000015	         -0.00000001	         -0.00000000	          0.00000000	         -0.00000000	          0.00000000	          0.25605655	          0.00000000	          0.00000000	         -0.00000000	          0.00000000	
          1.39500000	       -169.67702517	       1034.32710276	         20.61762575	         -0.28240558	          0.00000000	          0.05062431	          0.00000002	         -0.00000016	         -0.00000001	         -0.00000000	          0.00000000	         -0.00000000	          0.00000000	          0.25105665	          0.00000000	          0.00000000	         -0.00000000	          0.00000000	
          1.40000000	       -167.67318589	       1058.37418232	         17.85507302	         -0.28056835	          0.00000000	          0.05001828	          0.00000002	         -0.00000015	         -0.00000001	         -0.00000000	          0.00000000	         -0.00000000	          0.00000000	          0.26150386	          0.00000000	          0.00000000	         -0.00000000	          0.00000000	
